# xmcd
#
# Track frame offsets:
#	150
#	11642
#	24333
#	36416
#	49570
#	59672
#	69111
#	81234
#	91591
#	103060
#	114762
#	121814
#	130876
#	142637
#	151281
#	164309
#	176927
#	188992
#	200483
#	214082
#
# Disc length: 3009 seconds
#
# Revision: 1
# Processed by: cddbd v1.5.2PL0 Copyright (c) Steve Scherf et al.
# Submitted via: audiograbber 1.83.01
#
DISCID=070bbf14
DTITLE=Various Artist - American Roadsongs - CD 6 - At The Tennessee Border
DYEAR=1900
DGENRE=Country
TTITLE0=Red Foley - Tennessee Border # 2
TTITLE1=Toni Allen - Tennessee Jive
TTITLE2=Delmore Brothers - Tennessee Choo Choo
TTITLE3=Georgia Yellow Hammers - Big Ball In Memphis
TTITLE4=Jimmy Myers - Ding Dong Mama From Tennessee
TTITLE5=Link Davis - Trucker From Tennessee
TTITLE6=Red Foley - Night Train To Memphis
TTITLE7=R.D. Hendon - Music Making Mama From Tennessee
TTITLE8=Lou Bonnie - Tennessee Wig-Walk
TTITLE9=Red Foley - Tennessee Saturday Night
TTITLE10=Red Foley - Chattanooga Shoe Shine Boy
TTITLE11=Billy Hughes - Tennessee Farm
TTITLE12=Jeff Durham - Tennessee Boogie
TTITLE13=Jimmy Work - Tennessee Border
TTITLE14=Bullmoose Jackson - Memphis Gal
TTITLE15=Jenks Tex Carman - Sunny Tennessee
TTITLE16=Tommy Clayton - Tennessee Moon
TTITLE17=Rex Allen - Pedro Gonzales Tennessee Lopez
TTITLE18=Cowboy Copas - Tennessee Waltz
TTITLE19=Bill Haley - Tennessee Border
EXTD=
EXTT0=
EXTT1=
EXTT2=
EXTT3=
EXTT4=
EXTT5=
EXTT6=
EXTT7=
EXTT8=
EXTT9=
EXTT10=
EXTT11=
EXTT12=
EXTT13=
EXTT14=
EXTT15=
EXTT16=
EXTT17=
EXTT18=
EXTT19=
PLAYORDER=
